<svg width="32" height="32" viewBox="0 0 32 32" fill="none" xmlns="http://www.w3.org/2000/svg">
<circle opacity="0.5" cx="16" cy="16" r="15.5" stroke="white"/>
<path d="M16 17.6667C16.9205 17.6667 17.6667 16.9205 17.6667 16C17.6667 15.0795 16.9205 14.3333 16 14.3333C15.0795 14.3333 14.3333 15.0795 14.3333 16C14.3333 16.9205 15.0795 17.6667 16 17.6667Z" fill="white"/>
<path d="M8.5 17.6667C9.42048 17.6667 10.1667 16.9205 10.1667 16C10.1667 15.0795 9.42048 14.3333 8.5 14.3333C7.57953 14.3333 6.83334 15.0795 6.83334 16C6.83334 16.9205 7.57953 17.6667 8.5 17.6667Z" fill="white"/>
<path d="M23.5 17.6667C24.4205 17.6667 25.1667 16.9205 25.1667 16C25.1667 15.0795 24.4205 14.3333 23.5 14.3333C22.5795 14.3333 21.8333 15.0795 21.8333 16C21.8333 16.9205 22.5795 17.6667 23.5 17.6667Z" fill="white"/>
</svg>
