<svg width="20" height="20" viewBox="0 0 20 20" fill="none" xmlns="http://www.w3.org/2000/svg">
<path fill-rule="evenodd" clip-rule="evenodd" d="M5.83329 4.16663C5.83329 2.78592 6.95258 1.66663 8.33329 1.66663H15.8333C17.214 1.66663 18.3333 2.78592 18.3333 4.16663V11.6666C18.3333 13.0474 17.214 14.1666 15.8333 14.1666H14.1666V15.8333C14.1666 17.214 13.0474 18.3333 11.6666 18.3333H4.16663C2.78592 18.3333 1.66663 17.214 1.66663 15.8333V8.33329C1.66663 6.95258 2.78592 5.83329 4.16663 5.83329H5.83329V4.16663ZM7.49996 5.83329H11.6666C13.0474 5.83329 14.1666 6.95258 14.1666 8.33329V12.5H15.8333C16.2935 12.5 16.6666 12.1269 16.6666 11.6666V4.16663C16.6666 3.70639 16.2935 3.33329 15.8333 3.33329H8.33329C7.87306 3.33329 7.49996 3.70639 7.49996 4.16663V5.83329ZM4.16663 7.49996C3.70639 7.49996 3.33329 7.87306 3.33329 8.33329V15.8333C3.33329 16.2935 3.70639 16.6666 4.16663 16.6666H11.6666C12.1269 16.6666 12.5 16.2935 12.5 15.8333V8.33329C12.5 7.87306 12.1269 7.49996 11.6666 7.49996H4.16663Z" fill="#A0AEC0"/>
</svg>
