<svg width="36" height="36" viewBox="0 0 36 36" fill="none" xmlns="http://www.w3.org/2000/svg">
<circle cx="18" cy="18" r="18" fill="#FF3366"/>
<path d="M21.334 9.16607L21.9693 9.50489L20.2753 12.6814L19.64 12.3425L21.334 9.16607Z" fill="url(#paint0_linear_876_2200)"/>
<path fill-rule="evenodd" clip-rule="evenodd" d="M21.8719 9.53453L21.3637 9.26348L19.7374 12.3129L20.2456 12.584L21.8719 9.53453ZM21.334 9.16607L19.64 12.3425L20.2753 12.6814L21.9693 9.50489L21.334 9.16607Z" fill="white"/>
<path d="M23.7604 8.10881C23.7604 8.94386 23.0834 9.62081 22.2484 9.62081C21.4133 9.62081 20.7364 8.94386 20.7364 8.10881C20.7364 7.27376 21.4133 6.59681 22.2484 6.59681C23.0834 6.59681 23.7604 7.27376 23.7604 8.10881Z" fill="url(#paint1_linear_876_2200)"/>
<path fill-rule="evenodd" clip-rule="evenodd" d="M22.2484 9.54881C23.0437 9.54881 23.6884 8.9041 23.6884 8.10881C23.6884 7.31352 23.0437 6.66881 22.2484 6.66881C21.4531 6.66881 20.8084 7.31352 20.8084 8.10881C20.8084 8.9041 21.4531 9.54881 22.2484 9.54881ZM22.2484 9.62081C23.0834 9.62081 23.7604 8.94386 23.7604 8.10881C23.7604 7.27376 23.0834 6.59681 22.2484 6.59681C21.4133 6.59681 20.7364 7.27376 20.7364 8.10881C20.7364 8.94386 21.4133 9.62081 22.2484 9.62081Z" fill="white"/>
<path d="M7.20074 17.5414C7.20074 16.7461 7.84545 16.1014 8.64074 16.1014H10.6567V21.7173H8.64074C7.84545 21.7173 7.20074 21.0726 7.20074 20.2773V17.5414Z" fill="url(#paint2_linear_876_2200)"/>
<path fill-rule="evenodd" clip-rule="evenodd" d="M10.5847 16.1734H8.64074C7.88522 16.1734 7.27274 16.7858 7.27274 17.5414V20.2773C7.27274 21.0329 7.88522 21.6453 8.64074 21.6453H10.5847V16.1734ZM8.64074 16.1014C7.84545 16.1014 7.20074 16.7461 7.20074 17.5414V20.2773C7.20074 21.0726 7.84545 21.7173 8.64074 21.7173H10.6567V16.1014H8.64074Z" fill="white"/>
<path d="M28.8005 17.5414C28.8005 16.7461 28.1558 16.1014 27.3605 16.1014H25.3445V21.7173H27.3605C28.1558 21.7173 28.8005 21.0726 28.8005 20.2773V17.5414Z" fill="url(#paint3_linear_876_2200)"/>
<path fill-rule="evenodd" clip-rule="evenodd" d="M25.4165 16.1734H27.3605C28.116 16.1734 28.7285 16.7858 28.7285 17.5414V20.2773C28.7285 21.0329 28.116 21.6453 27.3605 21.6453H25.4165V16.1734ZM27.3605 16.1014C28.1558 16.1014 28.8005 16.7461 28.8005 17.5414V20.2773C28.8005 21.0726 28.1558 21.7173 27.3605 21.7173H25.3445V16.1014H27.3605Z" fill="white"/>
<path d="M27.7928 19.2688C27.7928 24.6767 23.4088 29.0607 18.0008 29.0607C12.5929 29.0607 8.20886 24.6767 8.20886 19.2688C8.20886 13.8608 12.5929 9.47678 18.0008 9.47678C23.4088 9.47678 27.7928 13.8608 27.7928 19.2688Z" fill="url(#paint4_linear_876_2200)"/>
<path fill-rule="evenodd" clip-rule="evenodd" d="M18.0008 28.9887C23.369 28.9887 27.7208 24.6369 27.7208 19.2688C27.7208 13.9006 23.369 9.54878 18.0008 9.54878C12.6326 9.54878 8.28086 13.9006 8.28086 19.2688C8.28086 24.6369 12.6326 28.9887 18.0008 28.9887ZM18.0008 29.0607C23.4088 29.0607 27.7928 24.6767 27.7928 19.2688C27.7928 13.8608 23.4088 9.47678 18.0008 9.47678C12.5929 9.47678 8.20886 13.8608 8.20886 19.2688C8.20886 24.6767 12.5929 29.0607 18.0008 29.0607Z" fill="white"/>
<path d="M9.64819 18.0646C9.64819 15.6507 11.3144 13.5562 13.6665 13.0134L14.0657 12.9213C15.4145 12.61 16.8897 12.4859 18.2738 12.4695C19.5137 12.4549 20.6573 12.5933 21.8655 12.8721L22.4778 13.0134C24.7682 13.7967 26.4962 15.8847 26.4962 18.0646V19.708C26.4962 22.2668 24.0903 24.0722 22.28 24.7379C22.0481 24.8231 21.8054 24.8735 21.5611 24.9097L20.3906 25.083C19.9016 25.1554 19.4082 25.1918 18.9138 25.1918C18.1924 25.1918 17.2024 25.1918 16.5602 25.1918L14.3282 24.9567C11.9201 24.5541 9.64819 22.3328 9.64819 19.708V18.0646Z" fill="url(#paint5_linear_876_2200)"/>
<path fill-rule="evenodd" clip-rule="evenodd" d="M26.2082 19.708V18.0646C26.2082 16.038 24.5917 14.0468 22.3985 13.2907L21.8008 13.1527C20.6125 12.8785 19.4919 12.7432 18.2772 12.7575C16.9061 12.7737 15.4528 12.8968 14.1305 13.2019L13.7313 13.294C11.5098 13.8067 9.93619 15.7848 9.93619 18.0646V19.708C9.93619 22.1661 12.0772 24.284 14.3672 24.6712L16.5753 24.9038H18.9138C19.394 24.9038 19.8734 24.8685 20.3484 24.7981L21.5189 24.6248C21.7533 24.59 21.9745 24.5433 22.1806 24.4676C23.0505 24.1477 24.0662 23.5519 24.8601 22.7325C25.6527 21.9143 26.2082 20.8914 26.2082 19.708ZM16.5602 25.1918L14.3282 24.9567C11.9201 24.5541 9.64819 22.3328 9.64819 19.708V18.0646C9.64819 15.6507 11.3144 13.5562 13.6665 13.0134L14.0657 12.9213C15.4145 12.61 16.8897 12.4859 18.2738 12.4695C19.5137 12.4549 20.6573 12.5933 21.8655 12.8721L22.4778 13.0134C24.7682 13.7967 26.4962 15.8847 26.4962 18.0646V19.708C26.4962 22.2668 24.0903 24.0722 22.28 24.7379C22.0481 24.8231 21.8054 24.8735 21.5611 24.9097L20.3906 25.083C19.9016 25.1554 19.4082 25.1918 18.9138 25.1918H16.5602Z" fill="url(#paint6_linear_876_2200)"/>
<path d="M13.2484 17.6119C13.2484 16.9359 13.7964 16.3879 14.4724 16.3879C15.1484 16.3879 15.6964 16.9359 15.6964 17.6119V19.9159C15.6964 20.5919 15.1484 21.1399 14.4724 21.1399C13.7964 21.1399 13.2484 20.5919 13.2484 19.9159V17.6119Z" fill="#FF3366"/>
<path d="M20.1604 17.6119C20.1604 16.9359 20.7084 16.3879 21.3844 16.3879C22.0604 16.3879 22.6084 16.9359 22.6084 17.6119V19.9159C22.6084 20.5919 22.0604 21.1399 21.3844 21.1399C20.7084 21.1399 20.1604 20.5919 20.1604 19.9159V17.6119Z" fill="#FF3366"/>
<defs>
<linearGradient id="paint0_linear_876_2200" x1="21.6517" y1="9.33548" x2="19.9576" y2="12.512" gradientUnits="userSpaceOnUse">
<stop stop-color="#F2C7CE"/>
<stop offset="1" stop-color="#F0C1C8"/>
</linearGradient>
<linearGradient id="paint1_linear_876_2200" x1="23.7604" y1="7.46081" x2="21.0964" y2="9.04481" gradientUnits="userSpaceOnUse">
<stop stop-color="#FEFBFB"/>
<stop offset="1" stop-color="#F4CDD2"/>
</linearGradient>
<linearGradient id="paint2_linear_876_2200" x1="8.92874" y1="16.1014" x2="8.92874" y2="21.7173" gradientUnits="userSpaceOnUse">
<stop stop-color="#FDF3F3"/>
<stop offset="1" stop-color="#EFC1C8"/>
</linearGradient>
<linearGradient id="paint3_linear_876_2200" x1="27.0725" y1="16.1014" x2="27.0725" y2="21.7173" gradientUnits="userSpaceOnUse">
<stop stop-color="#FDF3F3"/>
<stop offset="1" stop-color="#EFC1C8"/>
</linearGradient>
<linearGradient id="paint4_linear_876_2200" x1="10.1529" y1="13.0768" x2="25.5608" y2="26.4687" gradientUnits="userSpaceOnUse">
<stop stop-color="white"/>
<stop offset="0.239477" stop-color="#FDEFF0"/>
<stop offset="1" stop-color="#EDB9C2"/>
</linearGradient>
<linearGradient id="paint5_linear_876_2200" x1="12.6734" y1="10.021" x2="18.0722" y2="25.1918" gradientUnits="userSpaceOnUse">
<stop stop-color="#081F2F"/>
<stop offset="0.150129" stop-color="#5A1824"/>
<stop offset="1"/>
</linearGradient>
<linearGradient id="paint6_linear_876_2200" x1="10.5122" y1="14.2287" x2="25.2722" y2="23.2287" gradientUnits="userSpaceOnUse">
<stop stop-color="#FF3366"/>
<stop offset="0.510417" stop-color="#3397B7"/>
<stop offset="1" stop-color="#7233F7"/>
</linearGradient>
</defs>
</svg>
