<svg width="20" height="20" viewBox="0 0 20 20" fill="none" xmlns="http://www.w3.org/2000/svg">
<path d="M2.55801 9.06358C3.01946 5.36303 6.17476 2.5 10 2.5C11.902 2.5 13.669 3.20889 15.0099 4.37866V3.33333C15.0099 2.8731 15.3829 2.5 15.8432 2.5C16.3034 2.5 16.6765 2.8731 16.6765 3.33333V6.66667C16.6765 7.1269 16.3034 7.5 15.8432 7.5H12.5C12.0398 7.5 11.6667 7.1269 11.6667 6.66667C11.6667 6.20643 12.0398 5.83333 12.5 5.83333H14.1309C13.0631 4.80316 11.5918 4.16667 10 4.16667C7.02593 4.16667 4.57058 6.39312 4.21186 9.26975C4.15491 9.7265 3.73852 10.0506 3.28182 9.99358C2.82512 9.93667 2.50106 9.52025 2.55801 9.06358ZM16.7182 10.0064C17.1749 10.0633 17.499 10.4797 17.442 10.9364C16.9806 14.637 13.8253 17.5 10 17.5C8.10271 17.5 6.33971 16.7946 5.00002 15.6299V16.6667C5.00002 17.1269 4.62693 17.5 4.16669 17.5C3.70646 17.5 3.33336 17.1269 3.33336 16.6667V13.3333C3.33336 12.8731 3.70646 12.5 4.16669 12.5H7.50002C7.96026 12.5 8.33336 12.8731 8.33336 13.3333C8.33336 13.7936 7.96026 14.1667 7.50002 14.1667H5.86907C6.93697 15.1968 8.40828 15.8333 10 15.8333C12.9741 15.8333 15.4294 13.6069 15.7882 10.7302C15.8451 10.2735 16.2615 9.94942 16.7182 10.0064Z" fill="#A0AEC0"/>
</svg>
