<svg width="103" height="76" viewBox="0 0 103 76" fill="none" xmlns="http://www.w3.org/2000/svg">
<path d="M46.4151 18.9391C53.0971 18.9391 57.8102 24.3557 57.8102 32.1112V52.9773H54.1764C51.3727 52.9773 49.0998 50.6294 49.0998 47.7331V33.5885C49.0998 29.1567 47.3697 26.8178 44.2077 26.8178C40.3298 26.8178 38.0627 29.7723 38.0627 35.0042V52.9773H29.5313V33.5885C29.5313 29.1567 27.9205 26.8178 24.8182 26.8178C20.8806 26.8178 18.4942 29.7723 18.4942 35.0042V52.9773H9.78381V19.7393H15.8691L17.48 23.8633C19.8067 20.9088 23.3267 18.9391 27.1449 18.9391C31.2018 18.9391 34.6024 20.9088 36.4519 24.2942C38.6593 21.0319 42.3582 18.9391 46.4151 18.9391Z" fill="#E2E8F0"/>
<path d="M83.9762 19.7393H93.2832L79.2034 52.5464C75.3851 61.533 71.9845 64.9799 64.706 64.9799H61.1264V56.855H64.169C68.3452 56.855 69.1805 55.624 71.4476 50.6999L71.5669 50.4536L57.9047 19.7393H67.3907L75.9817 40.1745L83.9762 19.7393Z" fill="#E2E8F0"/>
</svg>
